<svg version="1.1" xmlns="http://www.w3.org/2000/svg" viewBox="-15.045182268645714 -18.26481971111267 30.090364537291432 36.170447729226645" fill="none" stroke="black" stroke-width="0.6%" vector-effect="non-scaling-stroke">
    <path d="M 0.99038 16.67746 L 0.1018 16.90563 L 0.1018 1.2902 L -1.045 0.18526 L -1.045 15.80069 L 0.1018 16.90563" />
    <path d="M -0.77836 0.11679 L -1.045 0.18526" />
    <path d="M 0.99038 1.06203 L 0.1018 1.2902" />
    <path d="M 0.99038 16.67746 L 0.99038 1.06203 L 0.64634 0.73055 L 5.53353 -0.52437" />
    <path d="M -12.01706 -10.71161 L -12.2837 -10.64314 L -13.4305 -11.74808 L -13.4305 -11.02515 L -13.54518 -11.13564 L -13.4305 -11.16509" />
    <path d="M -13.16386 -11.81655 L -13.4305 -11.74808" />
    <path d="M 12.42002 -2.29266 L 12.39718 -2.31467" />
    <path d="M 12.19788 -2.23561 L 12.42002 -2.29266" />
    <path d="M 12.54192 -1.90413 L 12.19788 -2.23561" />
    <path d="M 12.54192 -1.90413 L 11.65334 -1.67597 L 11.3093 -2.00745 L 11.3093 0.16136 L 6.53679 1.38683" />
    <path d="M 6.42211 -0.75253 L 11.3093 -2.00745" />
    <path d="M 6.53679 -0.64204 L 6.42211 -0.75253" />
    <path d="M 6.53679 -0.64204 L 5.64821 -0.41387 L 5.53353 -0.52437" />
    <path d="M 6.53679 1.52677 L 5.64821 1.75494 L 5.64821 1.032 L 5.99225 1.36348 L 5.99225 0.64055 L 5.64821 0.30906 L 5.64821 -0.41387" />
    <path d="M 5.53353 1.64444 L 5.64821 1.75494" />
    <path d="M 5.53353 1.64444 L 0.99038 2.81102" />
    <path d="M -11.0425 -9.77263 L -11.39512 -9.68209" />
    <path d="M 5.53353 1.64444 L 5.53353 -0.52437" />
    <path d="M -1.87896 -0.94363 L -1.87896 0.90118 L -1.045 1.7047" />
    <path d="M 10.50654 0.36749 L 10.50654 12.83452 L 11.65334 13.93946 L 11.65334 -1.67597" />
    <path d="M 6.53679 -0.64204 L 6.53679 0.0809 L 5.64821 0.30906" />
    <path d="M 6.53679 0.0809 L 6.88083 0.41238 L 5.99225 0.64055" />
    <path d="M 6.88083 1.13532 L 6.88083 0.41238" />
    <path d="M 6.53679 1.22366 L 6.53679 1.52677" />
    <path d="M -11.39512 4.74412 L -11.39512 -10.11237" />
    <path d="M -13.4305 -10.30221 L -13.4305 3.86735 L -12.2837 4.97229 L -12.2837 -10.64314" />
    <path d="M -13.54518 -10.4127 L -13.54518 -11.13564" />
    <path d="M 12.42002 -2.12948 L 12.62774 -2.18282" />
    <path d="M 12.42002 -2.02158 L 12.42002 -2.29266" />
    <path d="M 12.54192 -0.87808 L 13.08646 -1.01791" />
    <path d="M 13.08646 -1.74084 L 13.08646 -1.01791" />
    <path d="M 13.08646 -1.74084 L 12.54192 -1.60102" />
    <path d="M 12.54192 13.7113 L 11.65334 13.93946" />
    <path d="M 12.54192 13.7113 L 12.54192 -1.90413" />
    <path d="M 6.88083 1.13532 L 5.99225 1.36348" />
    <path d="M -11.39512 4.74412 L -12.2837 4.97229" />
    <path d="M -13.4305 -10.30221 L -13.54518 -10.4127" />
    <path d="M 13.08646 -1.74084 L 12.62774 -2.18282" />
    <path d="M -13.98947 -12.61202 L -0.2278 0.64725 L -0.2278 -0.22027 A 0.5 0.2487 180 0 0 0.4175 -0.10664 L 0.44585 -0.11337 L 13.77454 -3.53586 L 13.82842 -3.55191 A 0.5 0.2487 180 0 0 14.04518 -3.75685 L 14.04518 -2.88933" />
    <path d="M -13.98947 -13.47954 L -0.2278 -0.22027" />
    <path d="M 0.4175 0.76088 L 0.4175 -0.10664" />
    <path d="M -0.2278 0.64725 A 0.5 0.2487 180 0 0 0.4175 0.76088 L 0.44585 0.75416 L 13.77454 -2.66834 L 13.82842 -2.68438 A 0.5 0.2487 180 0 0 14.04518 -2.88933" />
    <path d="M 0.44585 0.75416 L 0.44585 -0.11337" />
    <path d="M 13.77454 -2.66834 L 13.77454 -3.53586" />
    <path d="M 13.82842 -2.68438 L 13.82842 -3.55191" />
    <path d="M 14.04518 -3.75685 A 0.5 0.2487 180 0 0 13.98947 -3.87094 L 0.2278 -17.1302 A 0.5 0.2487 180 0 0 -0.4175 -17.24384 L -0.44585 -17.23711 L -13.77454 -13.81461 L -13.82842 -13.79857 A 0.5 0.2487 180 0 0 -14.04518 -13.59362 L -14.04518 -12.7261 A 0.5 0.2487 180 0 0 -13.98947 -12.61202 L -13.98947 -13.47954" />
    <path d="M -14.04518 -13.59362 A 0.5 0.2487 180 0 0 -13.98947 -13.47954" />
</svg>