<svg version="1.1" xmlns="http://www.w3.org/2000/svg" viewBox="-30.36553245722745 -2.181414852382275 60.7310649144549 4.36282970476455" fill="none" stroke="black" stroke-width="0.6%" vector-effect="non-scaling-stroke">
    <path d="M -29.12963 0.14597 L -0.85999 1.16113 A 2 0.03836 180 0 0 1.7338 1.17796 L 1.84643 1.17689 L 28.30785 0.90576 L 28.52152 0.90323 A 2 0.03836 180 0 0 29.36553 0.87192" />
    <path d="M -29.12963 -0.85384 L -0.85999 0.16131 A 2 0.03836 180 0 0 1.7338 0.17814 L 1.84643 0.17707 L 28.30785 -0.09406 L 28.52152 -0.09659 A 2 0.03836 180 0 0 29.36553 -0.1279 A 2 0.03836 180 0 0 29.12963 -0.14597 L 0.85999 -1.16113 A 2 0.03836 180 0 0 -1.7338 -1.17796 L -1.84643 -1.17689 L -28.30785 -0.90576 L -28.52152 -0.90323 A 2 0.03836 180 0 0 -29.36553 -0.87192 A 2 0.03836 180 0 0 -29.12963 -0.85384 Z" />
    <path d="M 1.7338 1.17796 L 1.7338 0.17814" />
    <path d="M 1.84643 1.17689 L 1.84643 0.17707" />
    <path d="M 28.30785 0.90576 L 28.30785 -0.09406" />
    <path d="M 28.52152 0.90323 L 28.52152 -0.09659" />
    <path d="M -29.36553 0.1279 A 2 0.03836 180 0 0 -29.12963 0.14597 L -29.12963 -0.85384" />
    <path d="M -7.41649 -0.39703 C -7.5 -0.41 -7.5 -0.41 -7.47762 -0.41078 C -7.5 -0.41 -7.5 -0.41 -7.40394 -0.42532 C -7.33 -0.43 -7.33 -0.44 -7.34749 -0.43447 C -7.33 -0.43 -7.33 -0.44 -7.39063 -0.43854 C -7.4 -0.44 -7.45 -0.44 -7.49809 -0.44101 C -7.62 -0.44 -7.86 -0.45 -7.98296 -0.45279 C -8.17 -0.46 -8.37 -0.47 -8.48298 -0.47399 C -8.55 -0.48 -8.59 -0.48 -8.64304 -0.48119 C -8.67 -0.48 -8.78 -0.48 -8.93804 -0.48499 C -9.49 -0.49 -9.99 -0.5 -10.37747 -0.50637 L -10.45235 -0.5079 L -10.33821 -0.50885 C -9.55 -0.52 -8.78 -0.52 -8.25696 -0.5179 L -8.15461 -0.51771 L -8.08964 -0.51915 C -7.99 -0.52 -7.77 -0.53 -7.61536 -0.5276 C -7.51 -0.53 -7.43 -0.53 -7.21571 -0.53241 C -6.95 -0.54 -6.81 -0.54 -6.62804 -0.53691 C -6.5 -0.54 -6.49 -0.54 -6.54027 -0.5377 C -6.5 -0.54 -6.49 -0.54 -6.71857 -0.54458 C -6.95 -0.55 -7.17 -0.56 -7.3595 -0.5698 C -7.48 -0.58 -7.66 -0.58 -7.66087 -0.58444 C -7.48 -0.58 -7.66 -0.58 -7.66083 -0.58445 C -7.66 -0.58 -7.65 -0.58 -7.6381 -0.58462 C -7.62 -0.58 -7.61 -0.58 -7.5504 -0.58124 C -7.31 -0.57 -6.86 -0.55 -6.58097 -0.54155 L -6.45995 -0.53761 L -6.32632 -0.53787 C -6.25 -0.54 -6.14 -0.54 -6.06753 -0.53804 L -5.94178 -0.53799 L -5.95968 -0.53893 C -5.97 -0.54 -6.01 -0.54 -6.04144 -0.54308 C -6.3 -0.56 -6.54 -0.57 -6.65714 -0.58348 C -6.71 -0.59 -6.72 -0.59 -6.70826 -0.58957 C -6.71 -0.59 -6.72 -0.59 -6.69487 -0.59035 C -6.68 -0.59 -6.68 -0.59 -6.67398 -0.59047 C -6.67 -0.59 -6.66 -0.59 -6.64232 -0.58701 C -6.58 -0.58 -6.47 -0.57 -6.33193 -0.56228 C -6.22 -0.55 -6.15 -0.55 -5.9106 -0.53896 L -5.8906 -0.5379 L -5.75477 -0.53749 C -5.68 -0.54 -5.56 -0.54 -5.48268 -0.53637 L -5.34575 -0.53563 L -5.37094 -0.53903 C -5.43 -0.55 -5.46 -0.56 -5.44592 -0.56128 C -5.43 -0.55 -5.46 -0.56 -5.44156 -0.56566 C -5.43 -0.57 -5.39 -0.58 -5.37444 -0.57783 C -5.36 -0.58 -5.35 -0.58 -5.35078 -0.57779 C -5.35 -0.58 -5.35 -0.58 -5.35019 -0.57762 C -5.35 -0.58 -5.35 -0.58 -5.36732 -0.57322 C -5.42 -0.56 -5.4 -0.55 -5.39875 -0.56013 C -5.42 -0.56 -5.4 -0.55 -5.31638 -0.53789 L -5.2954 -0.53522 L -5.11466 -0.53419 C -4.7 -0.53 -4.44 -0.53 -4.10166 -0.53566 C -3.77 -0.54 -3.45 -0.54 -2.86384 -0.55467 C -2.59 -0.56 -2.34 -0.56 -2.1485 -0.56684 C -1.2 -0.58 -0.27 -0.59 0.92449 -0.5934 C 1.32 -0.59 1.57 -0.6 2.11782 -0.59595 C 3.07 -0.6 3.24 -0.6 3.79725 -0.60218 C 4.07 -0.6 4.68 -0.61 5.16791 -0.6152 L 5.59987 -0.61972 L 5.54955 -0.62193 C 5.49 -0.62 5.43 -0.63 5.42639 -0.62966 C 5.42 -0.63 5.44 -0.63 5.42464 -0.6304 C 5.42 -0.63 5.44 -0.63 5.51018 -0.63496 C 5.56 -0.64 5.58 -0.64 5.68944 -0.63769 C 5.78 -0.64 5.82 -0.64 5.86448 -0.6389 C 6.06 -0.64 6.28 -0.64 6.57064 -0.62718 C 7.63 -0.6 8.52 -0.57 9.2444 -0.53471 C 9.63 -0.52 10.08 -0.49 10.09903 -0.49136 C 10.16 -0.48 9.62 -0.47 10.10318 -0.48984 C 10.16 -0.48 9.62 -0.47 8.5557 -0.44686 C 7.78 -0.43 6.64 -0.42 6.03633 -0.40954 C 5.23 -0.4 4.32 -0.4 3.28912 -0.39904 C 2.76 -0.4 2.44 -0.4 1.56444 -0.4064 C 0.64 -0.41 0.31 -0.41 -0.15262 -0.41377 C -0.53 -0.41 -1.01 -0.41 -1.30125 -0.41165 C -1.57 -0.41 -1.9 -0.41 -2.13573 -0.40254 C -2.38 -0.4 -2.6 -0.39 -2.71569 -0.38847 C -2.92 -0.38 -2.95 -0.37 -2.89772 -0.37138 C -2.92 -0.38 -2.95 -0.37 -2.81091 -0.35908 C -2.79 -0.36 -2.75 -0.36 -2.65885 -0.35258 C -2.55 -0.35 -2.53 -0.35 -2.44078 -0.34632 C -2.21 -0.34 -2 -0.34 -1.8141 -0.34077 C -1.64 -0.34 -1.5 -0.35 -1.47257 -0.35016 C -1.45 -0.35 -1.52 -0.36 -1.46825 -0.35173 C -1.45 -0.35 -1.52 -0.36 -1.71013 -0.36211 C -1.84 -0.36 -1.88 -0.37 -1.90267 -0.36746 C -1.93 -0.37 -1.91 -0.37 -1.91512 -0.36921 C -1.93 -0.37 -1.91 -0.37 -1.84748 -0.37268 C -1.79 -0.37 -1.78 -0.37 -1.68515 -0.37521 C -1.56 -0.38 -1.46 -0.38 -1.30581 -0.37541 C -1.17 -0.37 -1 -0.37 -0.89137 -0.3697 C -0.8 -0.37 -0.7 -0.36 -0.65082 -0.36106 C -0.53 -0.35 -0.57 -0.34 -0.5813 -0.35149 C -0.53 -0.35 -0.57 -0.34 -0.72669 -0.33742 C -0.94 -0.33 -1.4 -0.32 -1.91159 -0.32116 C -2.19 -0.32 -2.66 -0.32 -2.93482 -0.32696 C -3.2 -0.33 -3.51 -0.34 -3.6809 -0.348 C -3.96 -0.36 -4.01 -0.38 -3.9285 -0.3729 C -3.96 -0.36 -4.01 -0.38 -3.79893 -0.39021 C -3.66 -0.4 -3.45 -0.41 -3.16488 -0.41209 L -3.04759 -0.41444 L -3.09277 -0.41571 C -3.2 -0.42 -3.45 -0.43 -3.63018 -0.43356 C -3.81 -0.44 -3.83 -0.44 -3.84366 -0.44018 C -4 -0.44 -4.15 -0.44 -4.37821 -0.43284 C -4.69 -0.43 -4.92 -0.43 -5.28253 -0.42758 L -5.44921 -0.42723 L -5.4993 -0.4252 C -5.76 -0.41 -6.13 -0.41 -6.58038 -0.39998 C -6.79 -0.4 -7.36 -0.39 -7.37917 -0.39226 C -7.38 -0.39 -7.4 -0.39 -7.41649 -0.39703 Z" />
    <path d="M -10.33821 -0.50559 L -10.33821 -0.50885" />
    <path d="M -8.25696 -0.46254 L -8.25696 -0.5179" />
    <path d="M -8.15461 -0.45848 L -8.15461 -0.51771" />
    <path d="M -8.08964 -0.45616 L -8.08964 -0.51915" />
    <path d="M -7.61536 -0.44354 L -7.61536 -0.5276" />
    <path d="M -7.21571 -0.3933 L -7.21571 -0.53241" />
    <path d="M -6.62804 -0.39937 L -6.62804 -0.53691" />
    <path d="M -7.66083 -0.58443 L -7.66083 -0.58445" />
    <path d="M -7.6381 -0.58312 L -7.6381 -0.58462" />
    <path d="M -7.5504 -0.57875 L -7.5504 -0.58124" />
    <path d="M -6.58097 -0.53971 L -6.58097 -0.54155" />
    <path d="M -6.45995 -0.40171 L -6.45995 -0.53761" />
    <path d="M -6.32632 -0.40385 L -6.32632 -0.53787" />
    <path d="M -6.06753 -0.40875 L -6.06753 -0.53804" />
    <path d="M -5.94178 -0.41159 L -5.94178 -0.53799" />
    <path d="M -5.9106 -0.41234 L -5.9106 -0.53896" />
    <path d="M -5.8906 -0.41284 L -5.8906 -0.5379" />
    <path d="M -5.75477 -0.41651 L -5.75477 -0.53749" />
    <path d="M -5.48268 -0.42588 L -5.48268 -0.53637" />
    <path d="M -5.34575 -0.42745 L -5.34575 -0.53563" />
    <path d="M -5.44156 -0.55622 L -5.44156 -0.56566" />
    <path d="M -5.31638 -0.42751 L -5.31638 -0.53789" />
    <path d="M -5.2954 -0.42755 L -5.2954 -0.53522" />
    <path d="M -5.11466 -0.428 L -5.11466 -0.53419" />
    <path d="M -2.1485 -0.47663 L -2.1485 -0.56684" />
    <path d="M 0.92449 -0.46169 L 0.92449 -0.5934" />
    <path d="M 3.79725 -0.45515 L 3.79725 -0.60218" />
    <path d="M 5.59987 -0.46214 L 5.59987 -0.61972" />
    <path d="M 5.51018 -0.62377 L 5.51018 -0.63496" />
    <path d="M 5.86448 -0.46432 L 5.86448 -0.6389" />
    <path d="M 10.09903 -0.48824 L 10.09903 -0.49136" />
    <path d="M -2.81091 -0.32543 L -2.81091 -0.35908" />
    <path d="M -2.65885 -0.32397 L -2.65885 -0.35258" />
    <path d="M -2.44078 -0.32243 L -2.44078 -0.34632" />
    <path d="M -1.8141 -0.32147 L -1.8141 -0.34077" />
    <path d="M -1.47257 -0.32359 L -1.47257 -0.35016" />
    <path d="M -1.84748 -0.36521 L -1.84748 -0.37268" />
    <path d="M -1.68515 -0.36159 L -1.68515 -0.37521" />
    <path d="M -1.30581 -0.32528 L -1.30581 -0.37541" />
    <path d="M -0.89137 -0.33231 L -0.89137 -0.3697" />
    <path d="M -0.65082 -0.34138 L -0.65082 -0.36106" />
    <path d="M -3.79893 -0.35487 L -3.79893 -0.39021" />
    <path d="M -3.04759 -0.32881 L -3.04759 -0.41444" />
    <path d="M -2.99734 -0.43753 L -2.99734 -0.43905 C -2.85 -0.44 -2.65 -0.43 -2.38504 -0.42467 C -2.37 -0.42 -2.35 -0.42 -2.15742 -0.42613 C -1.36 -0.43 -0.73 -0.44 0.30988 -0.43333 C 0.96 -0.43 1.67 -0.43 2.53443 -0.4244 C 3.07 -0.42 3.21 -0.42 3.43757 -0.42007 C 3.99 -0.42 4.52 -0.42 5.02377 -0.42227 C 5.58 -0.43 6.36 -0.43 7.11213 -0.44668 C 8.02 -0.46 8.8 -0.48 8.86475 -0.48663 C 8.89 -0.49 8.84 -0.49 8.8711 -0.48813 C 8.89 -0.49 8.84 -0.49 8.72105 -0.49399 C 8.55 -0.5 8.34 -0.49 7.88543 -0.48887 C 7.76 -0.49 7.51 -0.48 7.32555 -0.4814 C 6.71 -0.47 6.51 -0.47 6.17464 -0.46728 C 5.37 -0.46 4.61 -0.46 3.53655 -0.45495 C 2.44 -0.45 1.85 -0.46 0.73546 -0.46281 C 0.18 -0.47 -0.06 -0.47 -0.57042 -0.4718 C -0.82 -0.47 -1.09 -0.48 -1.16619 -0.47624 C -1.61 -0.48 -2.05 -0.48 -2.54768 -0.47365 C -2.69 -0.47 -2.75 -0.47 -2.80445 -0.47068 C -2.9 -0.47 -2.99 -0.47 -3.06729 -0.46339 C -3.13 -0.46 -3.13 -0.46 -3.11963 -0.46084 C -3.13 -0.46 -3.13 -0.46 -3.1082 -0.46028 C -3.06 -0.46 -2.71 -0.45 -2.48223 -0.45069 C -2.22 -0.45 -1.98 -0.44 -1.69821 -0.44123 C -1.54 -0.44 -1.48 -0.44 -1.48878 -0.43863 C -1.54 -0.44 -1.48 -0.44 -1.48907 -0.4386 C -1.49 -0.44 -1.5 -0.44 -1.51162 -0.4383 C -2.07 -0.44 -2.67 -0.45 -3.08029 -0.45858 C -3.13 -0.46 -3.15 -0.46 -3.16195 -0.45948 C -3.17 -0.46 -3.21 -0.46 -3.25771 -0.45589 C -3.31 -0.45 -3.36 -0.45 -3.38474 -0.45139 L -3.42513 -0.45017 L -3.30515 -0.44697 C -3.24 -0.45 -3.1 -0.44 -2.99734 -0.43905" />
    <path d="M -2.38504 -0.39786 L -2.38504 -0.42467" />
    <path d="M -2.15742 -0.40218 L -2.15742 -0.42613" />
    <path d="M 3.43757 -0.3988 L 3.43757 -0.42007" />
    <path d="M 5.02377 -0.40144 L 5.02377 -0.42227" />
    <path d="M 8.86475 -0.45251 L 8.86475 -0.48663" />
    <path d="M -3.1082 -0.45903 L -3.1082 -0.46028" />
    <path d="M -2.48223 -0.44959 L -2.48223 -0.45069" />
    <path d="M -3.42513 -0.44859 L -3.42513 -0.45017" />
    <path d="M -3.30515 -0.44542 L -3.30515 -0.44697" />
    <path d="M -3.13994 -0.41712 L -3.13994 -0.41886 C -3.07 -0.42 -3.02 -0.42 -3.01473 -0.41512 C -3.01 -0.42 -2.97 -0.42 -2.91043 -0.41671 C -2.78 -0.42 -2.56 -0.42 -2.46912 -0.42275 C -2.43 -0.42 -2.4 -0.42 -2.4001 -0.42364 C -2.43 -0.42 -2.4 -0.42 -2.40019 -0.42365 C -2.4 -0.42 -2.46 -0.42 -2.52537 -0.42646 C -2.77 -0.43 -3.07 -0.44 -3.30753 -0.44549 C -3.37 -0.45 -3.42 -0.45 -3.43272 -0.44876 C -3.45 -0.45 -3.46 -0.45 -3.55839 -0.44648 C -3.62 -0.44 -3.69 -0.44 -3.72327 -0.44259 C -3.78 -0.44 -3.78 -0.44 -3.77336 -0.44116 C -3.78 -0.44 -3.78 -0.44 -3.76498 -0.44049 C -3.74 -0.44 -3.27 -0.42 -3.13994 -0.41886" />
    <path d="M -3.01473 -0.32822 L -3.01473 -0.41512" />
    <path d="M -2.91043 -0.32662 L -2.91043 -0.41671" />
    <path d="M -3.76498 -0.43834 L -3.76498 -0.44049" />
    <path d="M -0.85999 1.16113 L -0.85999 0.16131" />
    <path d="M -7.40394 -0.39537 L -7.40394 -0.42532" />
    <path d="M -6.69487 -0.58735 L -6.69487 -0.59035" />
    <path d="M -6.67398 -0.58514 L -6.67398 -0.59047" />
    <path d="M -6.64232 -0.58203 L -6.64232 -0.58701" />
    <path d="M -6.33193 -0.55923 L -6.33193 -0.56228" />
    <path d="M -5.37444 -0.57169 L -5.37444 -0.57783" />
    <path d="M -5.35078 -0.57722 L -5.35078 -0.57779" />
    <path d="M -4.10166 -0.43604 L -4.10166 -0.53566" />
    <path d="M -2.86384 -0.46953 L -2.86384 -0.55467" />
    <path d="M 2.11782 -0.45621 L 2.11782 -0.59595" />
    <path d="M 5.16791 -0.4593 L 5.16791 -0.6152" />
    <path d="M 5.68944 -0.46284 L 5.68944 -0.63769" />
    <path d="M 6.57064 -0.47164 L 6.57064 -0.62718" />
    <path d="M 9.2444 -0.4601 L 9.2444 -0.53471" />
    <path d="M -3.16488 -0.3312 L -3.16488 -0.41209" />
    <path d="M 0.30988 -0.41267 L 0.30988 -0.43333" />
    <path d="M 2.53443 -0.40131 L 2.53443 -0.4244" />
    <path d="M 7.11213 -0.42383 L 7.11213 -0.44668" />
    <path d="M -1.69821 -0.44021 L -1.69821 -0.44123" />
    <path d="M -2.46912 -0.39594 L -2.46912 -0.42275" />
    <path d="M -2.40019 -0.39753 L -2.40019 -0.42363" />
    <path d="M 29.36553 -0.1279 L 29.36553 0.87192" />
    <path d="M -29.36553 -0.87192 L -29.36553 0.1279" />
    <path d="M -7.34749 -0.39229 L -7.34749 -0.43447" />
    <path d="M -6.54027 -0.40054 L -6.54027 -0.5377" />
    <path d="M -5.39875 -0.54352 L -5.39875 -0.56013" />
    <path d="M -2.89772 -0.32645 L -2.89772 -0.37138" />
    <path d="M -1.46825 -0.32363 L -1.46825 -0.35173" />
    <path d="M 8.8711 -0.45263 L 8.8711 -0.48813" />
    <path d="M -3.11963 -0.45919 L -3.11963 -0.46084" />
    <path d="M -2.4001 -0.39753 L -2.4001 -0.42364" />
    <path d="M -3.77336 -0.43863 L -3.77336 -0.44116" />
</svg>