<svg version="1.1" xmlns="http://www.w3.org/2000/svg" viewBox="-15.045182268645716 -17.551945689173166 30.090364537291432 34.97385665959186" fill="none" stroke="black" stroke-width="0.6%" vector-effect="non-scaling-stroke">
    <path d="M -12.8571 -12.56065 L -12.8571 -12.34177" />
    <path d="M -12.39838 -11.91244 L -12.8571 -12.34177" />
    <path d="M -12.39838 -12.13132 L -12.39838 -11.91244 L 0.93032 -15.23703 L 0.93032 -15.45591 L -12.39838 -12.13132 Z" />
    <path d="M -12.8571 -12.56065 L -12.39838 -12.13132" />
    <path d="M 0.4716 -15.88524 L -12.8571 -12.56065" />
    <path d="M -13.98947 -12.87495 L -0.2278 0.00503 A 0.5 0.24158 180 0 0 0.4175 0.11541 L 0.44585 0.10888 L 13.77454 -3.21572 L 13.82842 -3.2313 A 0.5 0.24158 180 0 0 14.04518 -3.43038 A 0.5 0.24158 180 0 0 13.98947 -3.5412 L 0.2278 -16.42118 A 0.5 0.24158 180 0 0 -0.4175 -16.53156 L -0.44585 -16.52503 L -13.77454 -13.20043 L -13.82842 -13.18485 A 0.5 0.24158 180 0 0 -14.04518 -12.98577 A 0.5 0.24158 180 0 0 -13.98947 -12.87495 Z" />
    <path d="M -0.01288 -0.32046 L 13.31582 -3.64505 L 13.31582 -3.86393 L -0.01288 -0.53934 L -0.01288 -0.32046 L -0.4716 -0.74979" />
    <path d="M 0.4716 -15.88524 L 0.93032 -15.45591" />
    <path d="M -13.98947 -11.99942 L -0.2278 0.88056 L -0.2278 0.00503" />
    <path d="M -14.04518 -12.11024 A 0.5 0.24158 180 0 0 -13.98947 -11.99942 L -13.98947 -12.87495" />
    <path d="M 0.4175 0.99094 L 0.4175 0.11541" />
    <path d="M -0.2278 0.88056 A 0.5 0.24158 180 0 0 0.4175 0.99094 L 0.44585 0.9844 L 13.77454 -2.34019 L 13.82842 -2.35577 A 0.5 0.24158 180 0 0 14.04518 -2.55486" />
    <path d="M 0.44585 0.9844 L 0.44585 0.10888" />
    <path d="M 13.77454 -2.34019 L 13.77454 -3.21572" />
    <path d="M 13.82842 -2.35577 L 13.82842 -3.2313" />
    <path d="M -0.4716 -0.96867 L -0.4716 -0.74979" />
    <path d="M -0.4716 -0.96867 L -0.01288 -0.53934" />
    <path d="M 12.8571 -4.29326 L 13.31582 -3.86393" />
    <path d="M 12.8571 -4.29326 L -0.4716 -0.96867" />
    <path d="M -13.4305 -11.47626 L -13.4305 3.7566 L -12.2837 4.82993 L -12.2837 -10.40293" />
    <path d="M -11.39512 4.60829 L -12.2837 4.82993" />
    <path d="M -11.39512 4.60829 L -11.39512 -9.57128" />
    <path d="M -1.87896 -0.66482 L -1.87896 0.87529 L -1.045 1.65582" />
    <path d="M -1.045 0.11572 L -1.045 15.34858 L 0.1018 16.42191 L 0.1018 1.00488" />
    <path d="M 0.99038 16.20027 L 0.1018 16.42191" />
    <path d="M 0.99038 16.20027 L 0.99038 0.84858" />
    <path d="M 11.53866 -1.23183 L 11.53866 -1.78249" />
    <path d="M 0.99038 1.39924 L 11.53866 -1.23183" />
    <path d="M 10.50654 -0.97439 L 10.50654 12.46726 L 11.65334 13.5406 L 11.65334 -1.8111" />
    <path d="M 12.54192 13.31896 L 11.65334 13.5406" />
    <path d="M 12.54192 13.31896 L 12.54192 -2.03274" />
    <path d="M 13.31582 -1.67511 L 13.31582 -2.22577" />
    <path d="M 12.54192 -1.48208 L 13.31582 -1.67511" />
    <path d="M -14.04518 -12.98577 L -14.04518 -12.11024" />
    <path d="M 14.04518 -3.43038 L 14.04518 -2.55486" />
</svg>