<svg version="1.1" xmlns="http://www.w3.org/2000/svg" viewBox="-15.045182268645714 -18.26481971111267 30.090364537291432 36.170447729226645" fill="none" stroke="black" stroke-width="0.6%" vector-effect="non-scaling-stroke">
    <path d="M 9.10228 0.20343 L 9.10228 -1.46861" />
    <path d="M 4.20066 0.90229 L 4.65938 1.34426 L 9.10228 0.20343" />
    <path d="M -13.98947 -12.61202 L -0.2278 0.64725 A 0.5 0.2487 180 0 0 0.4175 0.76088 L 0.44585 0.75416 L 13.77454 -2.66834 L 13.82842 -2.68438 A 0.5 0.2487 180 0 0 14.04518 -2.88933" />
    <path d="M -14.04518 -12.7261 A 0.5 0.2487 180 0 0 -13.98947 -12.61202 L -13.98947 -13.47954 L -0.2278 -0.22027 A 0.5 0.2487 180 0 0 0.4175 -0.10664 L 0.44585 -0.11337 L 13.77454 -3.53586 L 13.82842 -3.55191 A 0.5 0.2487 180 0 0 14.04518 -3.75685 L 14.04518 -2.88933" />
    <path d="M 4.65938 -0.32778 L 4.65938 1.34426" />
    <path d="M 4.20066 0.90229 L 4.20066 -0.20999" />
    <path d="M -13.82842 -13.79857 A 0.5 0.2487 180 0 0 -14.04518 -13.59362 A 0.5 0.2487 180 0 0 -13.98947 -13.47954" />
    <path d="M 0.4175 0.76088 L 0.4175 -0.10664" />
    <path d="M -13.77454 -13.81461 L -13.82842 -13.79857" />
    <path d="M 0.44585 0.75416 L 0.44585 -0.11337" />
    <path d="M -0.44585 -17.23711 L -13.77454 -13.81461" />
    <path d="M 13.77454 -2.66834 L 13.77454 -3.53586" />
    <path d="M -0.4175 -17.24384 L -0.44585 -17.23711" />
    <path d="M 13.82842 -2.68438 L 13.82842 -3.55191" />
    <path d="M 0.2278 -17.1302 A 0.5 0.2487 180 0 0 -0.4175 -17.24384" />
    <path d="M 14.04518 -3.75685 A 0.5 0.2487 180 0 0 13.98947 -3.87094 L 0.2278 -17.1302" />
    <path d="M -1.87896 0.90118 L -1.045 1.7047" />
    <path d="M -1.87896 -0.94363 L -1.87896 0.90118" />
    <path d="M 12.54192 13.7113 L 11.65334 13.93946 L 11.65334 -1.67597 L 11.28645 -2.02946" />
    <path d="M 10.50654 12.83452 L 11.65334 13.93946" />
    <path d="M 12.54192 -1.90413 L 11.65334 -1.67597" />
    <path d="M 12.54192 13.7113 L 12.54192 -1.90413 L 12.17503 -2.25762" />
    <path d="M 10.50654 -1.82919 L 10.50654 12.83452" />
    <path d="M -11.39512 4.74412 L -12.2837 4.97229 L -12.2837 -10.64314 L -13.4305 -11.74808 L -13.4305 3.86735 L -12.2837 4.97229" />
    <path d="M -12.01706 -10.71161 L -12.2837 -10.64314" />
    <path d="M -11.39512 4.74412 L -11.39512 -10.11237" />
    <path d="M -13.16386 -11.81655 L -13.4305 -11.74808" />
    <path d="M 0.99038 16.67746 L 0.1018 16.90563 L 0.1018 1.2902 L -1.045 0.18526 L -1.045 15.80069 L 0.1018 16.90563" />
    <path d="M 0.99038 1.06203 L 0.1018 1.2902" />
    <path d="M 0.99038 16.67746 L 0.99038 1.06203 L 0.6235 0.70854" />
    <path d="M -0.77836 0.11679 L -1.045 0.18526" />
    <path d="M -0.2278 0.64725 L -0.2278 -0.22027" />
    <path d="M -14.04518 -13.59362 L -14.04518 -12.7261" />
</svg>