<svg version="1.1" xmlns="http://www.w3.org/2000/svg" viewBox="-9.28004337676632 -9.310398193921282 16.640535919377292 18.114649068863212" fill="none" stroke="black" stroke-width="0.6%" vector-effect="non-scaling-stroke">
    <path d="M 6.33588 4.49637 A 5 2.81458 349.91518 0 1 4.17609 7.39915 A 5 2.43235 360 0 1 -2.75413 6.716 L -8.28004 2.6615 L -8.28004 -5.43997 L -4.84196 -7.18438 L -1.35083 -8.3104" />
    <path d="M 3.40429 -1.13391 L 3.46175 -0.52797 L 3.51889 0.07892 L 3.57569 0.68663 L 3.63216 1.29509 L 3.68827 1.90419 L 3.74403 2.51383 L 3.79941 3.12393 L 3.85442 3.73438 L 3.90905 4.34509 L 3.96328 4.95596 L 4.01711 5.5669 L 4.07052 6.17781 L 4.12352 6.78859 L 4.17609 7.39915" />
    <path d="M 4.17508 -4.2559 L 4.26969 -4.18372 L 4.35894 -4.10993 L 4.44271 -4.03464 L 4.52092 -3.95793 L 4.59346 -3.8799 L 4.66023 -3.80064 L 4.72116 -3.72025 L 4.77618 -3.63884 L 4.82521 -3.55651 L 4.86819 -3.47334 L 4.90507 -3.38946 L 4.93581 -3.30496 L 4.96036 -3.21995 L 4.9787 -3.13453 L 4.9961 -2.97743 L 4.99252 -2.81998 L 4.96799 -2.66282 L 4.9226 -2.50661 L 4.85654 -2.35199 L 4.77009 -2.19961 L 4.66361 -2.05011 L 4.53753 -1.90409 L 4.39238 -1.76217 L 4.22876 -1.62494 L 4.04735 -1.49296 L 3.84891 -1.36678 L 3.63426 -1.24694 L 3.40429 -1.13391 L 2.93819 -0.97386 L 2.45697 -0.83886 L 1.96539 -0.73025 L 1.46834 -0.64912 L 0.97073 -0.59626 L 0.47752 -0.5722 L -0.00641 -0.57719 L -0.47627 -0.61117 L -0.92738 -0.67379 L -1.35528 -0.76446 L -1.75571 -0.88225 L -2.12471 -1.02601 L -2.45862 -1.19431 L -2.75413 -1.38548 L -8.28004 -5.43997" />
    <path d="M 4.17508 -4.2559 L -1.35083 -8.3104" />
    <path d="M 3.40429 -1.13391 L -4.84196 -7.18438" />
    <path d="M -2.75413 6.716 L -2.75413 -1.38548" />
    <path d="M 4.9787 -3.13453 L 6.33588 4.49637" />
</svg>