<svg version="1.1" xmlns="http://www.w3.org/2000/svg" viewBox="-15.045182268645714 -17.399892328699092 30.090364537291432 34.31770327137913" fill="none" stroke="black" stroke-width="0.6%" vector-effect="non-scaling-stroke">
    <path d="M -13.98947 -12.18726 L -0.2278 0.4079 A 0.5 0.23624 180 0 0 0.4175 0.51585 L 0.44585 0.50945 L 0.44585 -0.10748 L 13.77454 -3.35856 L 13.82842 -3.3738 A 0.5 0.23624 180 0 0 14.04518 -3.56848 A 0.5 0.23624 180 0 0 13.98947 -3.67685 L 0.2278 -16.27202 A 0.5 0.23624 180 0 0 -0.4175 -16.37996 L -0.44585 -16.37357 L -13.77454 -13.12249 L -13.82842 -13.10725 A 0.5 0.23624 180 0 0 -14.04518 -12.91257 A 0.5 0.23624 180 0 0 -13.98947 -12.8042 L -0.2278 -0.20903 A 0.5 0.23624 180 0 0 0.4175 -0.10109 L 0.44585 -0.10748" />
    <path d="M -14.04518 -12.29563 A 0.5 0.23624 180 0 0 -13.98947 -12.18726 L -13.98947 -12.8042" />
    <path d="M 0.4175 0.51585 L 0.4175 -0.10109" />
    <path d="M 0.44585 0.50945 L 13.77454 -2.74162 L 13.77454 -3.35856" />
    <path d="M 13.77454 -2.74162 L 13.82842 -2.75686 L 13.82842 -3.3738" />
    <path d="M 13.82842 -2.75686 A 0.5 0.23624 180 0 0 14.04518 -2.95154" />
    <path d="M -12.85292 -10.70815 L -12.85292 3.53256 L -11.70612 4.58216 L -11.70612 -10.09746" />
    <path d="M -12.50888 -10.83218 L -12.50888 -10.54778" />
    <path d="M -11.08411 4.43044 L -11.70612 4.58216" />
    <path d="M -11.08411 4.43044 L -11.08411 -9.52818" />
    <path d="M 1.30139 15.76609 L 1.30139 0.30078" />
    <path d="M -0.46742 0.1886 L -0.46742 14.86821 L 0.67938 15.91781 L 0.67938 0.45249" />
    <path d="M 0.33534 0.52901 L 0.33534 1.20772" />
    <path d="M 1.30139 15.76609 L 0.67938 15.91781" />
    <path d="M 5.80011 0.60922 L 5.80011 -0.79653" />
    <path d="M 5.80011 0.60922 L 1.30139 1.70653" />
    <path d="M 5.91479 -0.75472 L 5.91479 -0.82451" />
    <path d="M 6.25883 -0.43984 L 5.91479 -0.75472" />
    <path d="M 6.25883 0.29461 L 6.25883 -0.43984" />
    <path d="M 5.91479 -0.02027 L 6.25883 0.29461" />
    <path d="M 5.91479 0.71418 L 5.91479 -0.02027" />
    <path d="M 5.80011 0.60922 L 5.91479 0.71418" />
    <path d="M 6.53679 -0.97622 L 6.53679 -0.90643 L 6.88083 -0.59155 L 6.25883 -0.43984" />
    <path d="M 6.53679 -0.90643 L 5.91479 -0.75472" />
    <path d="M 6.88083 0.1429 L 6.88083 -0.59155" />
    <path d="M 6.53679 0.22681 L 6.53679 0.56247 L 5.91479 0.71418" />
    <path d="M 11.88688 -2.28119 L 11.88688 -0.87544 L 6.53679 0.42953" />
    <path d="M 11.08411 -0.67963 L 11.08411 12.05061 L 12.23092 13.10021 L 12.23092 -2.36511" />
    <path d="M 12.85292 12.94849 L 12.23092 13.10021" />
    <path d="M 12.85292 12.94849 L 12.85292 -2.51683" />
    <path d="M -1.30139 -0.57468 L -1.30139 0.71496 L -0.46742 1.47823" />
    <path d="M -12.96327 -10.80915 L -12.96327 -11.24805" />
    <path d="M -12.64217 -10.51526 L -12.50888 -10.54778" />
    <path d="M -12.64217 -10.51526 L -12.96327 -10.80915" />
    <path d="M -12.64217 -10.51526 L -12.64217 -10.95417" />
    <path d="M -0.11905 0.94634 L -0.11905 0.47468" />
    <path d="M 0.20205 1.24023 L 0.33534 1.20772" />
    <path d="M 0.20205 1.24023 L -0.11905 0.94634" />
    <path d="M 0.20205 1.24023 L 0.20205 0.53568" />
    <path d="M 6.88083 0.1429 L 6.25883 0.29461" />
    <path d="M -0.2278 0.4079 L -0.2278 -0.20903" />
    <path d="M -14.04518 -12.91257 L -14.04518 -12.29563" />
    <path d="M 14.04518 -3.56848 L 14.04518 -2.95154" />
</svg>