<svg version="1.1" xmlns="http://www.w3.org/2000/svg" viewBox="-15.045182268645716 -17.603133257280742 30.090364537291432 34.86083779157792" fill="none" stroke="black" stroke-width="0.6%" vector-effect="non-scaling-stroke">
    <path d="M -13.98947 -12.08472 L -0.2278 0.6665 A 0.5 0.23917 180 0 0 0.4175 0.77578 L 0.44585 0.76931 L 0.44585 -0.10887 L 13.77454 -3.40022 L 13.82842 -3.41565 A 0.5 0.23917 180 0 0 14.04518 -3.61274 A 0.5 0.23917 180 0 0 13.98947 -3.72246 L 0.2278 -16.47368 A 0.5 0.23917 180 0 0 -0.4175 -16.58295 L -0.44585 -16.57648 L -13.77454 -13.28513 L -13.82842 -13.2697 A 0.5 0.23917 180 0 0 -14.04518 -13.07261 A 0.5 0.23917 180 0 0 -13.98947 -12.96289 L -0.2278 -0.21167 A 0.5 0.23917 180 0 0 0.4175 -0.1024 L 0.44585 -0.10887" />
    <path d="M -14.04518 -12.19443 A 0.5 0.23917 180 0 0 -13.98947 -12.08472 L -13.98947 -12.96289" />
    <path d="M 0.4175 0.77578 L 0.4175 -0.1024" />
    <path d="M 0.44585 0.76931 L 13.77454 -2.52205 L 13.77454 -3.40022" />
    <path d="M 13.77454 -2.52205 L 13.82842 -2.53747 L 13.82842 -3.41565" />
    <path d="M 13.82842 -2.53747 A 0.5 0.23917 180 0 0 14.04518 -2.73457" />
    <path d="M -11.39512 4.56218 L -11.39512 -9.68085" />
    <path d="M -13.4305 -11.56679 L -13.4305 3.719 L -12.2837 4.78161 L -12.2837 -10.50419" />
    <path d="M -11.39512 4.56218 L -12.2837 4.78161" />
    <path d="M 0.99038 16.03828 L 0.99038 0.63484" />
    <path d="M -1.045 -0.09069 L -1.045 15.1951 L 0.1018 16.2577 L 0.1018 0.78958" />
    <path d="M 0.99038 16.03828 L 0.1018 16.2577" />
    <path d="M -1.87896 -0.86342 L -1.87896 0.86649 L -1.045 1.63922" />
    <path d="M 12.54192 13.18577 L 12.54192 -2.21767" />
    <path d="M 10.50654 -1.71505 L 10.50654 12.34259 L 11.65334 13.40519 L 11.65334 -1.99824" />
    <path d="M 12.54192 13.18577 L 11.65334 13.40519" />
    <path d="M -0.2278 0.6665 L -0.2278 -0.21167" />
    <path d="M -14.04518 -13.07261 L -14.04518 -12.19443" />
    <path d="M 14.04518 -3.61274 L 14.04518 -2.73457" />
</svg>