<svg version="1.1" xmlns="http://www.w3.org/2000/svg" viewBox="-28.464699857455795 -19.26309273868837 56.9293997149116 33.05670540362593" fill="none" stroke="black" stroke-width="0.6%" vector-effect="non-scaling-stroke">
    <path d="M -27.41043 -13.46755 L -0.22496 0.84643 A 0.5 0.13381 180 0 0 0.41888 0.90866 L 0.44732 0.90509 L 0.44732 -0.05844 L 27.19124 -3.69602 L 27.24532 -3.70456 A 0.5 0.13381 180 0 0 27.4647 -3.8153 A 0.5 0.13381 180 0 0 27.41043 -3.87593 L 0.22496 -18.18991 A 0.5 0.13381 180 0 0 -0.41888 -18.25214 L -0.44732 -18.24857 L -27.19124 -14.61099 L -27.24532 -14.60245 A 0.5 0.13381 180 0 0 -27.4647 -14.49171 A 0.5 0.13381 180 0 0 -27.41043 -14.43108 L -0.22496 -0.1171 A 0.5 0.13381 180 0 0 0.41888 -0.05487 L 0.44732 -0.05844" />
    <path d="M -27.4647 -13.52818 A 0.5 0.13381 180 0 0 -27.41043 -13.46755 L -27.41043 -14.43108" />
    <path d="M 0.41888 0.90866 L 0.41888 -0.05487" />
    <path d="M 0.44732 0.90509 L 27.19124 -2.73249 L 27.19124 -3.69602" />
    <path d="M 27.19124 -2.73249 L 27.24532 -2.74103 L 27.24532 -3.70456" />
    <path d="M 27.24532 -2.74103 A 0.5 0.13381 180 0 0 27.4647 -2.85177" />
    <path d="M 0.56636 9.45171 L 0.56636 0.88889" />
    <path d="M -1.45783 0.19729 L -1.45783 8.97655 L -0.3251 9.57297 L -0.3251 0.7937" />
    <path d="M 0.56636 9.45171 L -0.3251 9.57297" />
    <path d="M 6.6831 12.67236 L 6.6831 0.05693" />
    <path d="M 4.6589 0.33225 L 4.6589 12.1972 L 5.79163 12.79361 L 5.79163 0.17818" />
    <path d="M 6.6831 12.67236 L 5.79163 12.79361" />
    <path d="M 4.33669 0.37607 L 4.33669 8.18841 L 4.6589 8.35806" />
    <path d="M 12.47761 11.88422 L 12.47761 -0.73121" />
    <path d="M 10.45342 -0.45589 L 10.45342 11.40905 L 11.58615 12.00547 L 11.58615 -0.60996" />
    <path d="M 12.47761 11.88422 L 11.58615 12.00547" />
    <path d="M -0.22496 0.84643 L -0.22496 -0.1171" />
    <path d="M -27.4647 -14.49171 L -27.4647 -13.52818" />
    <path d="M 27.4647 -3.8153 L 27.4647 -2.85177" />
</svg>