<svg version="1.1" xmlns="http://www.w3.org/2000/svg" viewBox="-15.045182268645714 -18.26481971111267 30.090364537291432 36.170447729226645" fill="none" stroke="black" stroke-width="0.6%" vector-effect="non-scaling-stroke">
    <path d="M -0.24224 0.63335 L -0.24224 0.95872 L -1.045 0.18526 L -1.045 15.80069 L 0.1018 16.90563 L 0.1018 2.3746 L 0.21649 2.4851 L 13.54518 -0.9374 L 13.54518 -2.60945" />
    <path d="M 0.21649 0.78187 L 0.21649 2.4851" />
    <path d="M -13.98947 -12.61202 L -0.2278 0.64725 A 0.5 0.2487 180 0 0 0.4175 0.76088 L 0.44585 0.75416 L 13.77454 -2.66834 L 13.82842 -2.68438 A 0.5 0.2487 180 0 0 14.04518 -2.88933" />
    <path d="M -14.04518 -12.7261 A 0.5 0.2487 180 0 0 -13.98947 -12.61202 L -13.98947 -13.47954 L -0.2278 -0.22027 A 0.5 0.2487 180 0 0 0.4175 -0.10664 L 0.44585 -0.11337 L 13.77454 -3.53586 L 13.82842 -3.55191 A 0.5 0.2487 180 0 0 14.04518 -3.75685 L 14.04518 -2.88933" />
    <path d="M 0.99038 16.67746 L 0.99038 2.28638" />
    <path d="M -0.77836 0.11679 L -1.045 0.18526" />
    <path d="M 0.99038 16.67746 L 0.1018 16.90563" />
    <path d="M -12.3611 -11.04309 L -12.62774 -10.97463" />
    <path d="M -12.62774 -11.3 L -12.62774 -10.97463" />
    <path d="M -11.39512 4.74412 L -11.39512 -10.11237" />
    <path d="M -13.08646 -11.74197 L -13.08646 -11.4166 L -13.4305 -11.74808 L -13.4305 3.86735 L -12.2837 4.97229 L -12.2837 -10.64314 L -12.62774 -10.97463" />
    <path d="M -1.87896 -0.94363 L -1.87896 0.90118 L -1.045 1.7047" />
    <path d="M 10.50654 -0.15715 L 10.50654 12.83452 L 11.65334 13.93946 L 11.65334 -0.45162" />
    <path d="M 12.54192 13.7113 L 12.54192 -0.67979" />
    <path d="M 12.54192 13.7113 L 11.65334 13.93946" />
    <path d="M -13.82842 -13.79857 A 0.5 0.2487 180 0 0 -14.04518 -13.59362 L -14.04518 -12.7261" />
    <path d="M -14.04518 -13.59362 A 0.5 0.2487 180 0 0 -13.98947 -13.47954" />
    <path d="M 0.4175 0.76088 L 0.4175 -0.10664" />
    <path d="M -13.77454 -13.81461 L -13.82842 -13.79857" />
    <path d="M 0.44585 0.75416 L 0.44585 -0.11337" />
    <path d="M -0.44585 -17.23711 L -13.77454 -13.81461" />
    <path d="M 13.77454 -2.66834 L 13.77454 -3.53586" />
    <path d="M -0.4175 -17.24384 L -0.44585 -17.23711" />
    <path d="M 13.82842 -2.68438 L 13.82842 -3.55191" />
    <path d="M 0.2278 -17.1302 A 0.5 0.2487 180 0 0 -0.4175 -17.24384" />
    <path d="M 14.04518 -3.75685 A 0.5 0.2487 180 0 0 13.98947 -3.87094 L 0.2278 -17.1302" />
    <path d="M -12.01706 -10.71161 L -12.2837 -10.64314" />
    <path d="M -13.16386 -11.81655 L -13.4305 -11.74808" />
    <path d="M -11.39512 4.74412 L -12.2837 4.97229" />
    <path d="M -0.2278 0.64725 L -0.2278 -0.22027" />
</svg>